<?xml version="1.0" encoding="UTF-8" standalone="no"?>
<!-- Created with Inkscape (http://www.inkscape.org/) -->

<svg
   xmlns:dc="http://purl.org/dc/elements/1.1/"
   xmlns:cc="http://creativecommons.org/ns#"
   xmlns:rdf="http://www.w3.org/1999/02/22-rdf-syntax-ns#"
   xmlns:svg="http://www.w3.org/2000/svg"
   xmlns="http://www.w3.org/2000/svg"
   xmlns:sodipodi="http://sodipodi.sourceforge.net/DTD/sodipodi-0.dtd"
   xmlns:inkscape="http://www.inkscape.org/namespaces/inkscape"
   width="100mm"
   height="100mm"
   viewBox="0 0 354.33071 354.33071"
   id="svg4013"
   version="1.1"
   inkscape:version="0.91 r13725"
   sodipodi:docname="Zeichnung.svg">
  <sodipodi:namedview
     id="base"
     pagecolor="#ffffff"
     bordercolor="#666666"
     borderopacity="1.0"
     inkscape:pageopacity="0.0"
     inkscape:pageshadow="2"
     inkscape:zoom="1.6171333"
     inkscape:cx="65.548089"
     inkscape:cy="177.16535"
     inkscape:document-units="px"
     inkscape:current-layer="layer1"
     showgrid="false"
     inkscape:window-width="1440"
     inkscape:window-height="775"
     inkscape:window-x="0"
     inkscape:window-y="0"
     inkscape:window-maximized="1" />
  <defs
     id="defs4015" />
  <metadata
     id="metadata4018">
    <rdf:RDF>
      <cc:Work
         rdf:about="">
        <dc:format>image/svg+xml</dc:format>
        <dc:type
           rdf:resource="http://purl.org/dc/dcmitype/StillImage" />
        <dc:title></dc:title>
      </cc:Work>
    </rdf:RDF>
  </metadata>
  <g
     inkscape:label="Ebene 1"
     inkscape:groupmode="layer"
     id="layer1"
     transform="translate(0,-698.0315)">
    <path
       style="fill:none;fill-opacity:1;stroke:#000000;stroke-width:4;stroke-miterlimit:4;stroke-dasharray:none;stroke-opacity:1"
       d="m 46.996735,803.15576 183.039945,0 0,123.05726 -183.039945,0 z"
       id="rect4021" />
    <g
       style="font-style:normal;font-weight:normal;font-size:40px;line-height:125%;font-family:sans-serif;text-align:center;letter-spacing:0px;word-spacing:0px;text-anchor:middle;fill:#000000;fill-opacity:1;stroke:none;stroke-width:1px;stroke-linecap:butt;stroke-linejoin:miter;stroke-opacity:1"
       id="text4823">
      <path
         d="m 126.74393,760.48773 -19.16016,0 0,-29.08203 19.16016,0 0,3.4375 -15.29297,0 0,7.96875 15.29297,0 0,3.4375 -15.29297,0 0,10.80078 15.29297,0 0,3.4375 z"
         style=""
         id="path4834" />
      <path
         d="m 136.54861,735.01898 -4.14062,0 0,-3.80859 4.14062,0 0,3.80859 z m -0.23437,25.46875 -3.67188,0 0,-21.8164 3.67188,0 0,21.8164 z"
         style=""
         id="path4836" />
      <path
         d="m 161.86111,760.48773 -3.67187,0 0,-12.42187 q 0,-1.50391 -0.17578,-2.8125 -0.17578,-1.32813 -0.64453,-2.07032 -0.48828,-0.82031 -1.40625,-1.21093 -0.91797,-0.41016 -2.38282,-0.41016 -1.5039,0 -3.14453,0.74219 -1.64062,0.74219 -3.14453,1.89453 l 0,16.28906 -3.67187,0 0,-21.8164 3.67187,0 0,2.42187 q 1.71875,-1.42578 3.55469,-2.22656 1.83594,-0.80078 3.76953,-0.80078 3.53516,0 5.39063,2.1289 1.85546,2.12891 1.85546,6.13282 l 0,14.16015 z"
         style=""
         id="path4838" />
      <path
         d="m 204.02908,734.8432 -10.39062,0 0,25.64453 -3.86719,0 0,-25.64453 -10.39062,0 0,-3.4375 24.64843,0 0,3.4375 z"
         style=""
         id="path4840" />
      <path
         d="m 225.94315,749.96039 -16.07422,0 q 0,2.01172 0.60547,3.51562 0.60546,1.48438 1.66015,2.44141 1.01563,0.9375 2.40235,1.40625 1.40625,0.46875 3.08593,0.46875 2.22657,0 4.47266,-0.87891 2.26562,-0.89843 3.22266,-1.75781 l 0.19531,0 0,4.00391 q -1.85547,0.78125 -3.78906,1.30859 -1.9336,0.52734 -4.0625,0.52734 -5.42969,0 -8.47657,-2.92968 -3.04687,-2.94922 -3.04687,-8.35938 0,-5.35156 2.91015,-8.49609 2.92969,-3.14453 7.69532,-3.14453 4.41406,0 6.79687,2.57812 2.40235,2.57813 2.40235,7.32422 l 0,1.99219 z m -3.57422,-2.8125 q -0.0195,-2.89063 -1.46485,-4.47266 -1.42578,-1.58203 -4.35547,-1.58203 -2.94921,0 -4.70703,1.73828 -1.73828,1.73828 -1.97265,4.31641 l 12.5,0 z"
         style=""
         id="path4842" />
      <path
         d="m 250.39627,760.48773 -4.62891,0 -6.1914,-8.3789 -6.23047,8.3789 -4.27734,0 8.51562,-10.8789 -8.4375,-10.9375 4.62891,0 6.15234,8.24218 6.17188,-8.24218 4.29687,0 -8.57422,10.74218 8.57422,11.07422 z"
         style=""
         id="path4844" />
      <path
         d="m 266.50955,760.29242 q -1.03515,0.27344 -2.26562,0.44922 -1.21094,0.17578 -2.16797,0.17578 -3.33985,0 -5.07813,-1.79688 -1.73828,-1.79687 -1.73828,-5.76171 l 0,-11.60157 -2.48047,0 0,-3.08593 2.48047,0 0,-6.26954 3.67188,0 0,6.26954 7.57812,0 0,3.08593 -7.57812,0 0,9.94141 q 0,1.71875 0.0781,2.69531 0.0781,0.95703 0.54688,1.79688 0.42968,0.78125 1.17187,1.15234 0.76172,0.35156 2.30469,0.35156 0.89844,0 1.875,-0.2539 0.97656,-0.27344 1.40625,-0.44922 l 0.19531,0 0,3.30078 z"
         style=""
         id="path4846" />
    </g>
    <path
       style="fill:none;fill-opacity:1;stroke:#000000;stroke-width:4;stroke-miterlimit:4;stroke-dasharray:none;stroke-opacity:1"
       d="m 302.38696,971.04547 a 26.590263,54.726471 0 0 1 -26.59027,54.72643 26.590263,54.726471 0 0 1 -26.59026,-54.72643 26.590263,54.726471 0 0 1 26.59026,-54.72647 26.590263,54.726471 0 0 1 26.59027,54.72647 z"
       id="path4827" />
    <g
       gcodetools="Gcodetools tool definition"
       transform="matrix(1.000000,0.000000,0.000000,1.000000,-84.451911,177.165359)"
       id="g4863">
      <path
         gcodetools="Gcodetools tool background"
         style="fill:#00ff00;fill-opacity:0.5;stroke:#444444; stroke-width:1px;"
         d="m -20,-20 l 400,0 0,175.000000 -400,0 z "
         id="path4865" />
      <g
         gcodetools="Gcodetools tool parameter"
         id="g4867">
        <text
           gcodetools="Gcodetools tool definition field name"
           style="font-family:DejaVu Sans;font-style:normal;font-variant:normal;font-weight:normal;font-stretch:normal;font-family:DejaVu Sans;fill:#000000;fill-opacity:1;stroke:none;font-size:20.000000px;"
           x="0"
           y="0"
           xml:space="preserve"
           id="text4869"><tspan
             x="0"
             y="0"
             sodipodi:role="line"
             id="tspan4871">name</tspan></text>
        <text
           gcodetools="Gcodetools tool definition field value"
           style="font-family:DejaVu Sans;font-style:normal;font-variant:normal;font-weight:normal;font-stretch:normal;font-family:DejaVu Sans;fill:#000000;fill-opacity:1;stroke:none;font-size:20.000000px;"
           x="150"
           y="0"
           xml:space="preserve"
           id="text4873"><tspan
             x="150"
             y="0"
             sodipodi:role="line"
             id="tspan4875">Cone cutter</tspan></text>
      </g>
      <g
         gcodetools="Gcodetools tool parameter"
         id="g4877">
        <text
           gcodetools="Gcodetools tool definition field name"
           style="font-family:DejaVu Sans;font-style:normal;font-variant:normal;font-weight:normal;font-stretch:normal;font-family:DejaVu Sans;fill:#000000;fill-opacity:1;stroke:none;font-size:10.000000px;"
           x="0"
           y="20"
           xml:space="preserve"
           id="text4879"><tspan
             x="0"
             y="20"
             sodipodi:role="line"
             id="tspan4881">id</tspan></text>
        <text
           gcodetools="Gcodetools tool definition field value"
           style="font-family:DejaVu Sans;font-style:normal;font-variant:normal;font-weight:normal;font-stretch:normal;font-family:DejaVu Sans;fill:#000000;fill-opacity:1;stroke:none;font-size:10.000000px;"
           x="150"
           y="20"
           xml:space="preserve"
           id="text4883"><tspan
             x="150"
             y="20"
             sodipodi:role="line"
             id="tspan4885">Cone cutter 0001</tspan></text>
      </g>
      <g
         gcodetools="Gcodetools tool parameter"
         id="g4887">
        <text
           gcodetools="Gcodetools tool definition field name"
           style="font-family:DejaVu Sans;font-style:normal;font-variant:normal;font-weight:normal;font-stretch:normal;font-family:DejaVu Sans;fill:#000000;fill-opacity:1;stroke:none;font-size:10.000000px;"
           x="0"
           y="35"
           xml:space="preserve"
           id="text4889"><tspan
             x="0"
             y="35"
             sodipodi:role="line"
             id="tspan4891">diameter</tspan></text>
        <text
           gcodetools="Gcodetools tool definition field value"
           style="font-family:DejaVu Sans;font-style:normal;font-variant:normal;font-weight:normal;font-stretch:normal;font-family:DejaVu Sans;fill:#000000;fill-opacity:1;stroke:none;font-size:10.000000px;"
           x="150"
           y="35"
           xml:space="preserve"
           id="text4893"><tspan
             x="150"
             y="35"
             sodipodi:role="line"
             id="tspan4895">10</tspan></text>
      </g>
      <g
         gcodetools="Gcodetools tool parameter"
         id="g4897">
        <text
           gcodetools="Gcodetools tool definition field name"
           style="font-family:DejaVu Sans;font-style:normal;font-variant:normal;font-weight:normal;font-stretch:normal;font-family:DejaVu Sans;fill:#000000;fill-opacity:1;stroke:none;font-size:10.000000px;"
           x="0"
           y="50"
           xml:space="preserve"
           id="text4899"><tspan
             x="0"
             y="50"
             sodipodi:role="line"
             id="tspan4901">feed</tspan></text>
        <text
           gcodetools="Gcodetools tool definition field value"
           style="font-family:DejaVu Sans;font-style:normal;font-variant:normal;font-weight:normal;font-stretch:normal;font-family:DejaVu Sans;fill:#000000;fill-opacity:1;stroke:none;font-size:10.000000px;"
           x="150"
           y="50"
           xml:space="preserve"
           id="text4903"><tspan
             x="150"
             y="50"
             sodipodi:role="line"
             id="tspan4905">400</tspan></text>
      </g>
      <g
         gcodetools="Gcodetools tool parameter"
         id="g4907">
        <text
           gcodetools="Gcodetools tool definition field name"
           style="font-family:DejaVu Sans;font-style:normal;font-variant:normal;font-weight:normal;font-stretch:normal;font-family:DejaVu Sans;fill:#000000;fill-opacity:1;stroke:none;font-size:10.000000px;"
           x="0"
           y="65"
           xml:space="preserve"
           id="text4909"><tspan
             x="0"
             y="65"
             sodipodi:role="line"
             id="tspan4911">shape</tspan></text>
        <text
           gcodetools="Gcodetools tool definition field value"
           style="font-family:DejaVu Sans;font-style:normal;font-variant:normal;font-weight:normal;font-stretch:normal;font-family:DejaVu Sans;fill:#000000;fill-opacity:1;stroke:none;font-size:10.000000px;"
           x="150"
           y="65"
           xml:space="preserve"
           id="text4913"><tspan
             x="150"
             y="65"
             sodipodi:role="line"
             id="tspan4915">w</tspan></text>
      </g>
      <g
         gcodetools="Gcodetools tool parameter"
         id="g4917">
        <text
           gcodetools="Gcodetools tool definition field name"
           style="font-family:DejaVu Sans;font-style:normal;font-variant:normal;font-weight:normal;font-stretch:normal;font-family:DejaVu Sans;fill:#000000;fill-opacity:1;stroke:none;font-size:10.000000px;"
           x="0"
           y="80"
           xml:space="preserve"
           id="text4919"><tspan
             x="0"
             y="80"
             sodipodi:role="line"
             id="tspan4921">penetration feed</tspan></text>
        <text
           gcodetools="Gcodetools tool definition field value"
           style="font-family:DejaVu Sans;font-style:normal;font-variant:normal;font-weight:normal;font-stretch:normal;font-family:DejaVu Sans;fill:#000000;fill-opacity:1;stroke:none;font-size:10.000000px;"
           x="150"
           y="80"
           xml:space="preserve"
           id="text4923"><tspan
             x="150"
             y="80"
             sodipodi:role="line"
             id="tspan4925">100</tspan></text>
      </g>
      <g
         gcodetools="Gcodetools tool parameter"
         id="g4927">
        <text
           gcodetools="Gcodetools tool definition field name"
           style="font-family:DejaVu Sans;font-style:normal;font-variant:normal;font-weight:normal;font-stretch:normal;font-family:DejaVu Sans;fill:#000000;fill-opacity:1;stroke:none;font-size:10.000000px;"
           x="0"
           y="95"
           xml:space="preserve"
           id="text4929"><tspan
             x="0"
             y="95"
             sodipodi:role="line"
             id="tspan4931">depth step</tspan></text>
        <text
           gcodetools="Gcodetools tool definition field value"
           style="font-family:DejaVu Sans;font-style:normal;font-variant:normal;font-weight:normal;font-stretch:normal;font-family:DejaVu Sans;fill:#000000;fill-opacity:1;stroke:none;font-size:10.000000px;"
           x="150"
           y="95"
           xml:space="preserve"
           id="text4933"><tspan
             x="150"
             y="95"
             sodipodi:role="line"
             id="tspan4935">1</tspan></text>
      </g>
      <g
         gcodetools="Gcodetools tool parameter"
         id="g4937">
        <text
           gcodetools="Gcodetools tool definition field name"
           style="font-family:DejaVu Sans;font-style:normal;font-variant:normal;font-weight:normal;font-stretch:normal;font-family:DejaVu Sans;fill:#000000;fill-opacity:1;stroke:none;font-size:10.000000px;"
           x="0"
           y="110"
           xml:space="preserve"
           id="text4939"><tspan
             x="0"
             y="110"
             sodipodi:role="line"
             id="tspan4941">tool change gcode</tspan></text>
        <text
           gcodetools="Gcodetools tool definition field value"
           style="font-family:DejaVu Sans;font-style:normal;font-variant:normal;font-weight:normal;font-stretch:normal;font-family:DejaVu Sans;fill:#000000;fill-opacity:1;stroke:none;font-size:10.000000px;"
           x="150"
           y="110"
           xml:space="preserve"
           id="text4943"><tspan
             x="150"
             y="110"
             sodipodi:role="line"
             id="tspan4945">(None)</tspan></text>
      </g>
    </g>
    <g
       id="g5059"
       transform="matrix(1.000000,0.000000,0.000000,1.000000,0.000000,698.031500)"
       gcodetools="Gcodetools orientation group">
      <g
         id="g5061"
         gcodetools="Gcodetools orientation point (2 points)">
        <path
           id="path5063"
           style="stroke:none;fill:#000000;"
           gcodetools="Gcodetools orientation point arrow"
           d="m 0.0,354.33070866 2.9375,-6.343750000001 0.8125,1.90625 6.843748640396,-6.84374864039 0,0 0.6875,0.6875 -6.84375,6.84375 1.90625,0.812500000001 z z" />
        <text
           id="text5065"
           xml:space="preserve"
           y="344.33070866"
           x="10.0"
           style="font-family:DejaVu Sans;font-style:normal;font-variant:normal;font-weight:normal;font-stretch:normal;font-family:DejaVu Sans;fill:#000000;fill-opacity:1;stroke:none;font-size:10.000000px;"
           gcodetools="Gcodetools orientation point text"><tspan
             id="tspan5067"
             sodipodi:role="line"
             y="344.33070866"
             x="10.0">(0.0; 0.0; 0.0)</tspan></text>
      </g>
      <g
         id="g5069"
         gcodetools="Gcodetools orientation point (2 points)">
        <path
           id="path5071"
           style="stroke:none;fill:#000000;"
           gcodetools="Gcodetools orientation point arrow"
           d="m 354.3307066,354.33070866 2.9375,-6.343750000001 0.8125,1.90625 6.843748640396,-6.84374864039 0,0 0.6875,0.6875 -6.84375,6.84375 1.90625,0.812500000001 z z" />
        <text
           id="text5073"
           xml:space="preserve"
           y="344.33070866"
           x="364.3307066"
           style="font-family:DejaVu Sans;font-style:normal;font-variant:normal;font-weight:normal;font-stretch:normal;font-family:DejaVu Sans;fill:#000000;fill-opacity:1;stroke:none;font-size:10.000000px;"
           gcodetools="Gcodetools orientation point text"><tspan
             id="tspan5075"
             sodipodi:role="line"
             y="344.33070866"
             x="364.3307066">(100.0; 0.0; -1.0)</tspan></text>
      </g>
    </g>
  </g>
</svg>
